<svg width="44" height="45" viewBox="0 0 44 45" fill="none" xmlns="http://www.w3.org/2000/svg">
<path d="M26.1818 43.1543C35.4702 43.1543 43 35.6245 43 26.3361C43 17.0476 35.4702 9.51782 26.1818 9.51782C16.8933 9.51782 9.36353 17.0476 9.36353 26.3361C9.36353 35.6245 16.8933 43.1543 26.1818 43.1543Z" stroke="#2159A8" stroke-width="2" stroke-linecap="round" stroke-linejoin="round"/>
<path d="M26.1817 31.298C28.9221 31.298 31.1437 29.0764 31.1437 26.336C31.1437 23.5955 28.9221 21.3739 26.1817 21.3739C23.4412 21.3739 21.2196 23.5955 21.2196 26.336C21.2196 29.0764 23.4412 31.298 26.1817 31.298Z" fill="#F47D20" stroke="#2159A8" stroke-width="2" stroke-linecap="round" stroke-linejoin="round"/>
<path d="M26.1817 37.6103C32.4084 37.6103 37.4561 32.5626 37.4561 26.3359C37.4561 20.1091 32.4084 15.0614 26.1817 15.0614C19.955 15.0614 14.9072 20.1091 14.9072 26.3359C14.9072 32.5626 19.955 37.6103 26.1817 37.6103Z" stroke="#2159A8" stroke-width="2" stroke-linecap="round" stroke-linejoin="round"/>
<path d="M26.1817 26.336L11.8468 12.0011" stroke="#2159A8" stroke-width="2" stroke-linecap="round" stroke-linejoin="round"/>
<path d="M6.70731 12.417L12.0011 12.0011L12.417 6.70731L6.70731 1L6.29147 6.29147L1 6.70731L6.70731 12.417Z" stroke="#2159A8" stroke-width="2" stroke-linecap="round" stroke-linejoin="round"/>
</svg>
