<svg width="44" height="44" viewBox="0 0 44 44" fill="none" xmlns="http://www.w3.org/2000/svg">
<path d="M22.0101 34.4051V29.6155" stroke="#2159A8" stroke-width="2" stroke-linecap="round" stroke-linejoin="round"/>
<path d="M8.43751 3.21079C9.24621 25.1259 22.0002 29.615 22.0002 29.615C22.0002 29.615 34.7541 25.1233 35.5628 3.21079C35.6079 2.0065 34.6389 1 33.4322 1H10.5682C9.36388 1 8.39494 2.0065 8.43751 3.21079Z" stroke="#2159A8" stroke-width="2" stroke-linecap="round" stroke-linejoin="round"/>
<path d="M22.0102 34.4049C22.0102 34.4049 14.0459 37.9652 14.0459 42.0187H29.952C29.952 37.9652 21.9877 34.4049 21.9877 34.4049H22.0077H22.0102Z" fill="#F47D20" stroke="#2159A8" stroke-width="2" stroke-linecap="round" stroke-linejoin="round"/>
<path d="M35.8031 6.11768H42.8435C42.8435 6.11768 44.6863 13.5262 35.7205 22.492" stroke="#2159A8" stroke-width="2" stroke-linecap="round" stroke-linejoin="round"/>
<path d="M8.19935 6.11768H1.15638C1.15638 6.11768 -0.686359 13.5262 8.27947 22.492" stroke="#2159A8" stroke-width="2" stroke-linecap="round" stroke-linejoin="round"/>
</svg>
