<svg width="23" height="22" viewBox="0 0 23 22" fill="none" xmlns="http://www.w3.org/2000/svg">
<g clip-path="url(#clip0_501_428)">
<path d="M11.6543 1.98086C14.5934 1.98086 14.9414 1.99375 16.0973 2.04531C17.1715 2.09258 17.7516 2.27305 18.1383 2.42344C18.6496 2.62109 19.0191 2.86172 19.4016 3.24414C19.7883 3.63086 20.0246 3.99609 20.2223 4.50742C20.3727 4.89414 20.5531 5.47852 20.6004 6.54844C20.652 7.70859 20.6648 8.05664 20.6648 10.9914C20.6648 13.9305 20.652 14.2785 20.6004 15.4344C20.5531 16.5086 20.3727 17.0887 20.2223 17.4754C20.0246 17.9867 19.784 18.3562 19.4016 18.7387C19.0148 19.1254 18.6496 19.3617 18.1383 19.5594C17.7516 19.7098 17.1672 19.8902 16.0973 19.9375C14.9371 19.9891 14.5891 20.002 11.6543 20.002C8.71523 20.002 8.36719 19.9891 7.21133 19.9375C6.13711 19.8902 5.55703 19.7098 5.17031 19.5594C4.65898 19.3617 4.28945 19.1211 3.90703 18.7387C3.52031 18.352 3.28398 17.9867 3.08633 17.4754C2.93594 17.0887 2.75547 16.5043 2.7082 15.4344C2.65664 14.2742 2.64375 13.9262 2.64375 10.9914C2.64375 8.05234 2.65664 7.7043 2.7082 6.54844C2.75547 5.47422 2.93594 4.89414 3.08633 4.50742C3.28398 3.99609 3.52461 3.62656 3.90703 3.24414C4.29375 2.85742 4.65898 2.62109 5.17031 2.42344C5.55703 2.27305 6.14141 2.09258 7.21133 2.04531C8.36719 1.99375 8.71523 1.98086 11.6543 1.98086ZM11.6543 0C8.66797 0 8.29414 0.0128906 7.12109 0.0644531C5.95234 0.116016 5.14883 0.305078 4.45273 0.575781C3.72656 0.859375 3.11211 1.2332 2.50195 1.84766C1.8875 2.45781 1.51367 3.07227 1.23008 3.79414C0.959375 4.49453 0.770313 5.29375 0.71875 6.4625C0.667188 7.63984 0.654297 8.01367 0.654297 11C0.654297 13.9863 0.667188 14.3602 0.71875 15.5332C0.770313 16.702 0.959375 17.5055 1.23008 18.2016C1.51367 18.9277 1.8875 19.5422 2.50195 20.1523C3.11211 20.7625 3.72656 21.1406 4.44844 21.4199C5.14883 21.6906 5.94805 21.8797 7.1168 21.9312C8.28984 21.9828 8.66367 21.9957 11.65 21.9957C14.6363 21.9957 15.0102 21.9828 16.1832 21.9312C17.352 21.8797 18.1555 21.6906 18.8516 21.4199C19.5734 21.1406 20.1879 20.7625 20.798 20.1523C21.4082 19.5422 21.7863 18.9277 22.0656 18.2059C22.3363 17.5055 22.5254 16.7063 22.577 15.5375C22.6285 14.3645 22.6414 13.9906 22.6414 11.0043C22.6414 8.01797 22.6285 7.64414 22.577 6.47109C22.5254 5.30234 22.3363 4.49883 22.0656 3.80273C21.7949 3.07227 21.4211 2.45781 20.8066 1.84766C20.1965 1.2375 19.582 0.859375 18.8602 0.580078C18.1598 0.309375 17.3605 0.120312 16.1918 0.06875C15.0145 0.0128906 14.6406 0 11.6543 0Z" fill="#9696AB"/>
<path d="M11.6543 5.34961C8.53477 5.34961 6.00391 7.88047 6.00391 11C6.00391 14.1195 8.53477 16.6504 11.6543 16.6504C14.7738 16.6504 17.3047 14.1195 17.3047 11C17.3047 7.88047 14.7738 5.34961 11.6543 5.34961ZM11.6543 14.6652C9.63047 14.6652 7.98906 13.0238 7.98906 11C7.98906 8.97617 9.63047 7.33477 11.6543 7.33477C13.6781 7.33477 15.3195 8.97617 15.3195 11C15.3195 13.0238 13.6781 14.6652 11.6543 14.6652Z" fill="#9696AB"/>
<path d="M18.8473 5.12627C18.8473 5.85674 18.2543 6.44541 17.5281 6.44541C16.7977 6.44541 16.209 5.85244 16.209 5.12627C16.209 4.3958 16.802 3.80713 17.5281 3.80713C18.2543 3.80713 18.8473 4.4001 18.8473 5.12627Z" fill="#9696AB"/>
</g>
<defs>
<clipPath id="clip0_501_428">
<rect width="22" height="22" fill="white" transform="translate(0.654297)"/>
</clipPath>
</defs>
</svg>
