<svg width="23" height="22" viewBox="0 0 23 22" fill="none" xmlns="http://www.w3.org/2000/svg">
<g clip-path="url(#clip0_501_429)">
<path d="M21.2031 0H2.45118C2.02046 0 1.60738 0.171103 1.30282 0.475667C0.998251 0.780231 0.827148 1.19331 0.827148 1.62403V20.376C0.827148 20.8067 0.998251 21.2198 1.30282 21.5243C1.60738 21.8289 2.02046 22 2.45118 22H21.2031C21.6338 22 22.0469 21.8289 22.3515 21.5243C22.656 21.2198 22.8271 20.8067 22.8271 20.376V1.62403C22.8271 1.19331 22.656 0.780231 22.3515 0.475667C22.0469 0.171103 21.6338 0 21.2031 0ZM7.38437 18.7413H4.07673V8.23472H7.38437V18.7413ZM5.72826 6.77875C5.35307 6.77664 4.9869 6.66343 4.67599 6.45341C4.36507 6.2434 4.12334 5.94599 3.98129 5.59871C3.83924 5.25144 3.80324 4.86988 3.87784 4.50217C3.95245 4.13446 4.1343 3.79709 4.40046 3.53263C4.66661 3.26818 5.00515 3.08849 5.37333 3.01626C5.74151 2.94402 6.12284 2.98246 6.46919 3.12674C6.81554 3.27101 7.11139 3.51465 7.31941 3.82691C7.52742 4.13917 7.63828 4.50605 7.63798 4.88125C7.64152 5.13245 7.59445 5.38179 7.49958 5.6144C7.4047 5.84702 7.26397 6.05816 7.08576 6.23523C6.90755 6.4123 6.69551 6.55168 6.46229 6.64506C6.22906 6.73843 5.97943 6.7839 5.72826 6.77875ZM19.576 18.7504H16.2699V13.0106C16.2699 11.3178 15.5503 10.7953 14.6215 10.7953C13.6406 10.7953 12.6781 11.5347 12.6781 13.0533V18.7504H9.37048V8.24236H12.5513V9.69833H12.5941C12.9134 9.05208 14.0317 7.9475 15.7383 7.9475C17.5838 7.9475 19.5776 9.04292 19.5776 12.2513L19.576 18.7504Z" fill="#9696AB"/>
</g>
<defs>
<clipPath id="clip0_501_429">
<rect width="22" height="22" fill="white" transform="translate(0.827148)"/>
</clipPath>
</defs>
</svg>
